<svg width="418.22509765625px" height="122.021240234375px" xmlns="http://www.w3.org/2000/svg" viewBox="40.887451171875 13.9893798828125 418.22509765625 122.021240234375" style="background: rgba(0, 0, 0, 0);" preserveAspectRatio="xMidYMid"><defs><filter id="editing-extrusion" x="-100%" y="-100%" width="300%" height="300%"><feFlood result="color1" flood-color="#444"></feFlood><feConvolveMatrix order="8,8" divisor="1" kernelMatrix="1 0 0 0 0 0 0 0 0 1 0 0 0 0 0 0 0 0 1 0 0 0 0 0 0 0 0 1 0 0 0 0 0 0 0 0 1 0 0 0 0 0 0 0 0 1 0 0 0 0 0 0 0 0 1 0 0 0 0 0 0 0 0 1" in="SourceAlpha" result="extrude"></feConvolveMatrix><feComposite in="color1" in2="extrude" result="comp-extrude" operator="in"></feComposite><feOffset dx="4" dy="4" in="comp-extrude" result="offset-extrude"></feOffset><feMerge><feMergeNode in="offset-extrude"></feMergeNode><feMergeNode in="SourceGraphic"></feMergeNode></feMerge></filter></defs><g filter="url(#editing-extrusion)"><g transform="translate(104.75001218914986, 104.43218803405762)"><path d="M0.45-0.32L0.45-0.32L8.51-42.24L8.51-42.24Q16.06-42.88 20.93-42.88L20.93-42.88L20.93-42.88Q25.79-42.88 28.93-42.46L28.93-42.46L28.93-42.46Q32.06-42.05 34.18-40.96L34.18-40.96L34.18-40.96Q38.40-38.91 38.40-33.28L38.40-33.28L38.40-33.28Q38.40-30.02 35.58-27.26L35.58-27.26L35.58-27.26Q32.96-24.77 30.08-24.19L30.08-24.19L30.08-24.19Q33.15-23.68 35.33-21.38L35.33-21.38L35.33-21.38Q37.63-18.94 37.63-15.17L37.63-15.17L37.63-15.17Q37.63-7.87 32.19-3.62L32.19-3.62L32.19-3.62Q26.75 0.64 16.06 0.64L16.06 0.64L16.06 0.64Q8.70 0.64 0.45-0.32ZM17.86-20.61L14.66-4.03L14.66-4.03Q15.23-3.97 15.36-3.97L15.36-3.97L15.94-3.97L15.94-3.97Q21.18-3.97 23.42-7.42L23.42-7.42L23.42-7.42Q25.09-10.11 25.09-15.04L25.09-15.04L25.09-15.04Q25.09-17.66 23.39-19.07L23.39-19.07L23.39-19.07Q21.70-20.48 17.86-20.61L17.86-20.61ZM27.58-33.22L27.58-33.22L27.58-33.22Q27.58-38.53 22.46-38.53L22.46-38.53L21.89-38.53L21.89-38.53Q21.63-38.53 21.25-38.46L21.25-38.46L18.69-24.96L19.33-24.96L19.33-24.96Q27.58-25.15 27.58-33.22ZM57.15-3.52L57.15-3.52L57.15-3.52Q55.17 1.28 48.83 1.28L48.83 1.28L48.83 1.28Q45.63 1.28 43.58-0.96L43.58-0.96L43.58-0.96Q41.92-2.82 41.92-4.93L41.92-4.93L41.92-4.93Q41.92-9.73 44.16-20.22L44.16-20.22L48.83-44.80L61.82-46.08L55.62-13.70L55.62-13.70Q54.53-8.96 54.53-7.30L54.53-7.30L54.53-7.30Q54.53-3.65 57.15-3.52ZM76.54 1.28L76.54 1.28L76.54 1.28Q62.46 1.28 62.46-11.97L62.46-11.97L62.46-11.97Q62.46-21.38 67.65-27.46L67.65-27.46L67.65-27.46Q73.15-33.92 82.69-33.92L82.69-33.92L82.69-33.92Q89.60-33.92 93.12-30.72L93.12-30.72L93.12-30.72Q96.64-27.52 96.64-20.80L96.64-20.80L96.64-20.80Q96.64-10.56 91.14-4.61L91.14-4.61L91.14-4.61Q85.76 1.28 76.54 1.28ZM78.21-26.56L78.21-26.56L78.21-26.56Q77.44-24.83 76.83-22.24L76.83-22.24L76.83-22.24Q76.22-19.65 75.46-15.55L75.46-15.55L75.46-15.55Q74.69-11.46 74.69-6.40L74.69-6.40L74.69-6.40Q74.69-4.74 75.23-3.65L75.23-3.65L75.23-3.65Q75.78-2.56 77.25-2.56L77.25-2.56L77.25-2.56Q78.72-2.56 79.65-3.26L79.65-3.26L79.65-3.26Q80.58-3.97 81.28-5.63L81.28-5.63L81.28-5.63Q82.56-8.58 83.58-14.05L83.58-14.05L83.58-14.05Q84.61-19.52 84.70-21.89L84.70-21.89L84.70-21.89Q84.80-24.26 84.80-26.02L84.80-26.02L84.80-26.02Q84.80-27.78 84.29-28.93L84.29-28.93L84.29-28.93Q83.78-30.08 82.34-30.08L82.34-30.08L82.34-30.08Q80.90-30.08 79.94-29.18L79.94-29.18L79.94-29.18Q78.98-28.29 78.21-26.56ZM104.96-26.75L104.96-26.75L104.96-26.75Q107.14-29.82 110.43-31.87L110.43-31.87L110.43-31.87Q113.73-33.92 117.76-33.92L117.76-33.92L117.76-33.92Q121.79-33.92 123.71-32.64L123.71-32.64L136.26-33.92L131.90-9.34L131.90-9.34Q129.66 3.20 124.93 8.13L124.93 8.13L124.93 8.13Q120.38 12.80 111.55 12.80L111.55 12.80L111.55 12.80Q104.83 12.80 100.99 10.69L100.99 10.69L100.99 10.69Q97.15 8.58 97.15 5.06L97.15 5.06L97.15 5.06Q97.15 2.43 99.14 0.93L99.14 0.93L99.14 0.93Q101.12-0.58 104.19-0.58L104.19-0.58L104.19-0.58Q106.88-0.58 108.93 0.64L108.93 0.64L108.93 0.64Q110.14 1.28 110.72 2.18L110.72 2.18L110.72 2.18Q109.25 3.46 109.25 5.57L109.25 5.57L109.25 5.57Q109.25 8.32 111.81 8.32L111.81 8.32L111.81 8.32Q116.10 8.32 118.53-1.79L118.53-1.79L118.53-1.79Q119.23-4.54 119.81-7.30L119.81-7.30L119.81-7.30Q116.93-3.78 110.40-3.78L110.40-3.78L110.40-3.78Q105.86-3.78 103.23-5.95L103.23-5.95L103.23-5.95Q100.61-8.13 100.61-13.25L100.61-13.25L100.61-13.25Q100.61-16.45 101.70-20.06L101.70-20.06L101.70-20.06Q102.78-23.68 104.96-26.75ZM113.28-13.06L113.28-13.06L113.28-13.06Q113.28-8.70 115.52-8.70L115.52-8.70L115.52-8.70Q117.06-8.70 118.53-10.37L118.53-10.37L118.53-10.37Q119.68-11.71 120.13-13.70L120.13-13.70L123.39-30.14L123.39-30.14Q123.07-30.21 122.75-30.34L122.75-30.34L122.75-30.34Q122.11-30.59 121.28-30.59L121.28-30.59L121.28-30.59Q117.38-30.59 115.07-24.19L115.07-24.19L115.07-24.19Q113.28-19.20 113.28-13.06ZM163.71-29.57L163.71-29.57L163.71-29.57Q164.67-31.49 164.67-33.28L164.67-33.28L164.67-33.28Q164.67-35.07 164.48-36.06L164.48-36.06L164.48-36.06Q164.29-37.06 163.84-37.82L163.84-37.82L163.84-37.82Q162.88-39.49 160.96-39.49L160.96-39.49L160.96-39.49Q158.59-39.49 156.67-37.76L156.67-37.76L156.67-37.76Q154.62-35.97 154.62-33.15L154.62-33.15L154.62-33.15Q154.62-31.36 155.87-29.98L155.87-29.98L155.87-29.98Q157.12-28.61 159.04-27.33L159.04-27.33L159.04-27.33Q160.96-26.05 163.14-24.77L163.14-24.77L163.14-24.77Q165.31-23.49 167.23-21.95L167.23-21.95L167.23-21.95Q171.65-18.43 171.65-13.70L171.65-13.70L171.65-13.70Q171.65-10.50 169.95-7.78L169.95-7.78L169.95-7.78Q168.26-5.06 165.44-3.07L165.44-3.07L165.44-3.07Q159.30 1.28 151.17 1.28L151.17 1.28L151.17 1.28Q144.58 1.28 141.18-0.86L141.18-0.86L141.18-0.86Q137.79-3.01 137.79-6.27L137.79-6.27L137.79-6.27Q137.79-12.10 142.34-13.57L142.34-13.57L142.34-13.57Q143.62-14.02 145.57-14.02L145.57-14.02L145.57-14.02Q147.52-14.02 149.76-13.18L149.76-13.18L149.76-13.18Q148.74-10.56 148.74-8.19L148.74-8.19L148.74-8.19Q148.74-3.07 152.38-3.07L152.38-3.07L152.38-3.07Q154.75-3.07 156.70-4.80L156.70-4.80L156.70-4.80Q158.66-6.53 158.66-8.48L158.66-8.48L158.66-8.48Q158.66-10.43 157.41-11.84L157.41-11.84L157.41-11.84Q156.16-13.25 154.30-14.37L154.30-14.37L154.30-14.37Q152.45-15.49 150.30-16.58L150.30-16.58L150.30-16.58Q148.16-17.66 146.30-19.20L146.30-19.20L146.30-19.20Q141.95-22.72 141.95-28.35L141.95-28.35L141.95-28.35Q141.95-32 143.74-34.85L143.74-34.85L143.74-34.85Q145.54-37.70 148.42-39.62L148.42-39.62L148.42-39.62Q154.18-43.52 161.25-43.52L161.25-43.52L161.25-43.52Q168.32-43.52 171.74-41.41L171.74-41.41L171.74-41.41Q175.17-39.30 175.17-35.71L175.17-35.71L175.17-35.71Q175.17-32.58 172.74-30.59L172.74-30.59L172.74-30.59Q170.62-28.93 168.06-28.93L168.06-28.93L168.06-28.93Q165.50-28.93 163.71-29.57ZM208.70-7.10L208.70-7.10L208.70-7.10Q208.70-4.29 211.58-3.46L211.58-3.46L211.58-3.46Q210.88-1.09 208.13 0.19L208.13 0.19L208.13 0.19Q205.82 1.28 203.30 1.28L203.30 1.28L203.30 1.28Q200.77 1.28 199.46 0.61L199.46 0.61L199.46 0.61Q198.14-0.06 197.44-1.15L197.44-1.15L197.44-1.15Q196.29-2.82 196.29-5.95L196.29-5.95L196.29-5.95Q196.29-7.81 197.31-12.93L197.31-12.93L198.21-17.79L198.21-17.79Q199.30-23.36 199.30-25.41L199.30-25.41L199.30-25.41Q199.30-28.99 197.31-28.99L197.31-28.99L197.31-28.99Q194.82-28.99 193.22-25.34L193.22-25.34L193.22-25.34Q192.58-23.94 192.13-21.82L192.13-21.82L187.78 0L174.91 1.28L183.94-44.80L196.80-46.08L196.29-43.52L196.29-43.52Q194.50-33.66 192.96-30.34L192.96-30.34L192.96-30.34Q196.54-33.92 203.14-33.92L203.14-33.92L203.14-33.92Q210.11-33.92 211.39-29.31L211.39-29.31L211.39-29.31Q211.84-27.84 211.84-26.56L211.84-26.56L211.84-26.56Q211.84-25.28 211.74-24.29L211.74-24.29L211.74-24.29Q211.65-23.30 211.33-21.50L211.33-21.50L210.50-16.90L209.02-9.66L209.02-9.66Q208.70-8.19 208.70-7.10ZM230.72 1.28L230.72 1.28L230.72 1.28Q216.64 1.28 216.64-11.97L216.64-11.97L216.64-11.97Q216.64-21.38 221.82-27.46L221.82-27.46L221.82-27.46Q227.33-33.92 236.86-33.92L236.86-33.92L236.86-33.92Q243.78-33.92 247.30-30.72L247.30-30.72L247.30-30.72Q250.82-27.52 250.82-20.80L250.82-20.80L250.82-20.80Q250.82-10.56 245.31-4.61L245.31-4.61L245.31-4.61Q239.94 1.28 230.72 1.28ZM232.38-26.56L232.38-26.56L232.38-26.56Q231.62-24.83 231.01-22.24L231.01-22.24L231.01-22.24Q230.40-19.65 229.63-15.55L229.63-15.55L229.63-15.55Q228.86-11.46 228.86-6.40L228.86-6.40L228.86-6.40Q228.86-4.74 229.41-3.65L229.41-3.65L229.41-3.65Q229.95-2.56 231.42-2.56L231.42-2.56L231.42-2.56Q232.90-2.56 233.82-3.26L233.82-3.26L233.82-3.26Q234.75-3.97 235.46-5.63L235.46-5.63L235.46-5.63Q236.74-8.58 237.76-14.05L237.76-14.05L237.76-14.05Q238.78-19.52 238.88-21.89L238.88-21.89L238.88-21.89Q238.98-24.26 238.98-26.02L238.98-26.02L238.98-26.02Q238.98-27.78 238.46-28.93L238.46-28.93L238.46-28.93Q237.95-30.08 236.51-30.08L236.51-30.08L236.51-30.08Q235.07-30.08 234.11-29.18L234.11-29.18L234.11-29.18Q233.15-28.29 232.38-26.56ZM284.42-4.38L284.42-4.38L284.42-4.38Q281.73-1.66 278.05-0.19L278.05-0.19L278.05-0.19Q274.37 1.28 270.72 1.28L270.72 1.28L270.72 1.28Q267.07 1.28 265.79 0.64L265.79 0.64L263.81 11.52L250.82 12.80L259.65-32.64L270.08-33.73L269.25-29.31L269.25-29.31Q271.94-33.86 277.50-33.86L277.50-33.86L277.50-33.86Q283.78-33.86 287.10-29.82L287.10-29.82L287.10-29.82Q290.05-26.18 290.05-20.61L290.05-20.61L290.05-20.61Q290.05-15.04 288.58-11.07L288.58-11.07L288.58-11.07Q287.10-7.10 284.42-4.38ZM269.95-22.34L266.56-3.58L266.56-3.58Q267.90-2.43 269.57-2.43L269.57-2.43L269.57-2.43Q271.23-2.43 272.19-3.07L272.19-3.07L272.19-3.07Q273.15-3.71 273.86-4.99L273.86-4.99L273.86-4.99Q275.78-8.45 277.31-18.94L277.31-18.94L277.31-18.94Q277.76-22.02 277.76-25.02L277.76-25.02L277.76-25.02Q277.76-28.03 277.09-28.99L277.09-28.99L277.09-28.99Q276.42-29.95 275.14-29.95L275.14-29.95L275.14-29.95Q271.23-29.95 269.95-22.34L269.95-22.34Z" fill="#ccc"></path></g></g><style>text {
  font-size: 64px;
  font-family: Arial Black;
  dominant-baseline: central;
  text-anchor: middle;
}</style></svg>